#define info16_width 16
#define info16_height 16
static unsigned char info16_bits[] = {
   0x00, 0x00, 0x00, 0x00, 0xf8, 0x1f, 0x0c, 0x30, 0x84, 0x21, 0x84, 0x21,
   0x04, 0x20, 0xc4, 0x21, 0x84, 0x21, 0x84, 0x21, 0x84, 0x21, 0xc4, 0x23,
   0x0c, 0x30, 0xf8, 0x1f, 0x00, 0x00, 0x00, 0x00 };
