#define new16_width 16
#define new16_height 16
static unsigned char new16_bits[] = {
   0x00, 0x00, 0x00, 0x00, 0xf8, 0x0f, 0x04, 0x1c, 0x04, 0x3c, 0xf4, 0x3c,
   0x04, 0x20, 0xf4, 0x21, 0x04, 0x00, 0xf4, 0x19, 0x04, 0x18, 0xf4, 0x7e,
   0x04, 0x7e, 0xf8, 0x18, 0x00, 0x18, 0x00, 0x00 };
