#define open16_width 16
#define open16_height 16
static unsigned char open16_bits[] = {
   0x00, 0x00, 0x00, 0x00, 0xf8, 0x0f, 0x04, 0x1c, 0x04, 0x3c, 0xf4, 0x3c,
   0x04, 0x20, 0xf4, 0x27, 0x04, 0x20, 0xf4, 0x27, 0x04, 0x20, 0xf4, 0x27,
   0x04, 0x20, 0xf8, 0x1f, 0x00, 0x00, 0x00, 0x00 };
