#define save16_width 16
#define save16_height 16
static unsigned char save16_bits[] = {
   0x00, 0x00, 0x00, 0x00, 0xf8, 0x0f, 0x74, 0x14, 0x74, 0x24, 0x74, 0x24,
   0xf4, 0x27, 0x04, 0x20, 0x04, 0x20, 0xe4, 0x27, 0x14, 0x28, 0x14, 0x28,
   0x14, 0x28, 0xf8, 0x1f, 0x00, 0x00, 0x00, 0x00 };
