#define saveAs16_width 16
#define saveAs16_height 16
static unsigned char saveAs16_bits[] = {
   0x00, 0x00, 0x00, 0x00, 0xf8, 0x0f, 0x74, 0x14, 0x74, 0x24, 0x74, 0x24,
   0xf4, 0x27, 0x04, 0x20, 0x04, 0x00, 0xe4, 0x1b, 0x14, 0x18, 0x14, 0x7e,
   0x14, 0x7e, 0xf8, 0x18, 0x00, 0x18, 0x00, 0x00 };
