#define trash16_width 16
#define trash16_height 16
static unsigned char trash16_bits[] = {
   0x00, 0x00, 0xc0, 0x01, 0x20, 0x02, 0xfc, 0x1f, 0x08, 0x08, 0xa8, 0x0a,
   0xa8, 0x0a, 0xa8, 0x0a, 0xa8, 0x0a, 0xa8, 0x0a, 0xa8, 0x0a, 0xa8, 0x0a,
   0x08, 0x08, 0xf0, 0x07, 0x00, 0x00, 0x00, 0x00 };
